<svg width="129" height="129" viewBox="0 0 129 129" fill="none" xmlns="http://www.w3.org/2000/svg">
<g filter="url(#filter0_f_665_5886)">
<path d="M73.6684 30H40.4198C34.6651 30 30 34.6651 30 40.4198V73.6684C30 79.423 34.6651 84.0881 40.4198 84.0881H73.6684C79.423 84.0881 84.0881 79.423 84.0881 73.6684V40.4198C84.0881 34.6651 79.423 30 73.6684 30Z" fill="#52E1F2"/>
</g>
<path d="M73.6684 30H40.4198C34.6651 30 30 34.6651 30 40.4198V73.6684C30 79.423 34.6651 84.0881 40.4198 84.0881H73.6684C79.423 84.0881 84.0881 79.423 84.0881 73.6684V40.4198C84.0881 34.6651 79.423 30 73.6684 30Z" fill="#52E1F2"/>
<g filter="url(#filter1_b_665_5886)">
<path d="M90.5355 45.9121H57.2869C51.5323 45.9121 46.8672 50.5772 46.8672 56.3319V89.5805C46.8672 95.3351 51.5323 100 57.2869 100H90.5355C96.2902 100 100.955 95.3351 100.955 89.5805V56.3319C100.955 50.5772 96.2902 45.9121 90.5355 45.9121Z" fill="url(#paint0_linear_665_5886)"/>
<path d="M90.5355 45.7382H57.2869C51.4362 45.7382 46.6933 50.4812 46.6933 56.3319V89.5805C46.6933 95.4312 51.4362 100.174 57.2869 100.174H90.5355C96.3862 100.174 101.129 95.4312 101.129 89.5805V56.3319C101.129 50.4812 96.3862 45.7382 90.5355 45.7382Z" stroke="url(#paint1_linear_665_5886)" stroke-width="0.347789"/>
</g>
<defs>
<filter id="filter0_f_665_5886" x="0.0901737" y="0.0901737" width="113.908" height="113.908" filterUnits="userSpaceOnUse" color-interpolation-filters="sRGB">
<feFlood flood-opacity="0" result="BackgroundImageFix"/>
<feBlend mode="normal" in="SourceGraphic" in2="BackgroundImageFix" result="shape"/>
<feGaussianBlur stdDeviation="14.9549" result="effect1_foregroundBlur_665_5886"/>
</filter>
<filter id="filter1_b_665_5886" x="33.9991" y="33.0441" width="79.8245" height="79.824" filterUnits="userSpaceOnUse" color-interpolation-filters="sRGB">
<feFlood flood-opacity="0" result="BackgroundImageFix"/>
<feGaussianBlur in="BackgroundImageFix" stdDeviation="6.2602"/>
<feComposite in2="SourceAlpha" operator="in" result="effect1_backgroundBlur_665_5886"/>
<feBlend mode="normal" in="SourceGraphic" in2="effect1_backgroundBlur_665_5886" result="shape"/>
</filter>
<linearGradient id="paint0_linear_665_5886" x1="49.9208" y1="96.9466" x2="97.9017" y2="48.9657" gradientUnits="userSpaceOnUse">
<stop stop-color="white" stop-opacity="0.2"/>
<stop offset="1" stop-color="white" stop-opacity="0.49"/>
</linearGradient>
<linearGradient id="paint1_linear_665_5886" x1="50.6852" y1="50.166" x2="95.8977" y2="98.5087" gradientUnits="userSpaceOnUse">
<stop stop-color="white"/>
<stop offset="1" stop-color="white" stop-opacity="0"/>
</linearGradient>
</defs>
</svg>
