<svg width="158" height="142" viewBox="0 0 158 142" fill="none" xmlns="http://www.w3.org/2000/svg">
<g filter="url(#filter0_b_525_5496)">
<path d="M150.5 6H80.375C78.6842 6 77.0627 6.67165 75.8672 7.86719C74.6716 9.06274 74 10.6842 74 12.375V69.75C74 71.4408 74.6716 73.0623 75.8672 74.2578C77.0627 75.4533 78.6842 76.125 80.375 76.125H150.5C152.191 76.125 153.812 75.4533 155.008 74.2578C156.203 73.0623 156.875 71.4408 156.875 69.75V12.375C156.875 10.6842 156.203 9.06274 155.008 7.86719C153.812 6.67165 152.191 6 150.5 6ZM101.413 48.075C102.089 48.5822 102.536 49.3373 102.655 50.1742C102.775 51.0111 102.557 51.8612 102.05 52.5375C101.543 53.2138 100.788 53.6609 99.9508 53.7805C99.1139 53.9 98.2638 53.6822 97.5875 53.175L84.8375 43.6125C84.4416 43.3156 84.1203 42.9306 83.899 42.488C83.6777 42.0454 83.5625 41.5573 83.5625 41.0625C83.5625 40.5677 83.6777 40.0796 83.899 39.637C84.1203 39.1944 84.4416 38.8094 84.8375 38.5125L97.5875 28.95C98.2638 28.4428 99.1139 28.225 99.9508 28.3445C100.788 28.4641 101.543 28.9112 102.05 29.5875C102.557 30.2638 102.775 31.1139 102.655 31.9508C102.536 32.7877 102.089 33.5428 101.413 34.05L92.0612 41.0625L101.413 48.075ZM124.876 19.6266L112.126 64.2516C112.018 64.6612 111.829 65.045 111.57 65.3806C111.311 65.7162 110.988 65.9968 110.619 66.206C110.251 66.4153 109.844 66.549 109.424 66.5992C109.003 66.6495 108.576 66.6153 108.169 66.4988C107.761 66.3822 107.381 66.1856 107.051 65.9204C106.72 65.6552 106.446 65.3267 106.244 64.9543C106.042 64.5818 105.916 64.1727 105.874 63.7511C105.832 63.3294 105.874 62.9035 105.999 62.4984L118.749 17.8734C118.994 17.0755 119.542 16.4055 120.276 16.0075C121.009 15.6094 121.87 15.5151 122.672 15.7447C123.475 15.9743 124.155 16.5095 124.567 17.2353C124.98 17.9612 125.091 18.8198 124.876 19.6266ZM146.037 43.6125L133.288 53.175C132.611 53.6822 131.761 53.9 130.924 53.7805C130.087 53.6609 129.332 53.2138 128.825 52.5375C128.318 51.8612 128.1 51.0111 128.22 50.1742C128.339 49.3373 128.786 48.5822 129.462 48.075L138.814 41.0625L129.462 34.05C129.128 33.7988 128.846 33.4842 128.632 33.124C128.419 32.7638 128.279 32.3652 128.22 31.9508C128.16 31.5364 128.183 31.1144 128.287 30.7089C128.391 30.3034 128.574 29.9224 128.825 29.5875C129.076 29.2526 129.391 28.9705 129.751 28.7572C130.111 28.544 130.51 28.4037 130.924 28.3445C131.339 28.2853 131.761 28.3083 132.166 28.4122C132.572 28.5161 132.953 28.6988 133.288 28.95L146.037 38.5125C146.433 38.8094 146.755 39.1944 146.976 39.637C147.197 40.0796 147.312 40.5677 147.312 41.0625C147.312 41.5573 147.197 42.0454 146.976 42.488C146.755 42.9306 146.433 43.3156 146.037 43.6125Z" fill="url(#paint0_linear_525_5496)"/>
<path d="M92.0084 40.9921L91.9144 41.0625L92.0084 41.1329L101.36 48.1454C102.017 48.6387 102.452 49.3729 102.568 50.1867C102.685 51.0004 102.473 51.8271 101.98 52.4847C101.486 53.1423 100.752 53.5771 99.9383 53.6933C99.1246 53.8096 98.2979 53.5978 97.6403 53.1046L84.8903 43.5421C84.5054 43.2534 84.1929 42.879 83.9778 42.4486C83.7626 42.0182 83.6505 41.5437 83.6505 41.0625C83.6505 40.5813 83.7626 40.1068 83.9778 39.6764C84.1929 39.246 84.5054 38.8716 84.8903 38.5829L97.6403 29.0204C98.2979 28.5272 99.1246 28.3154 99.9383 28.4317C100.752 28.5479 101.486 28.9827 101.98 29.6403C102.473 30.2979 102.685 31.1246 102.568 31.9383C102.452 32.7521 102.017 33.4864 101.36 33.9796L92.0084 40.9921ZM112.042 64.2274L112.041 64.229C111.936 64.6273 111.752 65.0005 111.5 65.3268C111.248 65.6532 110.934 65.926 110.576 66.1295C110.218 66.333 109.822 66.4629 109.413 66.5118C109.004 66.5607 108.589 66.5275 108.193 66.4141C107.797 66.3008 107.427 66.1096 107.106 65.8517C106.784 65.5938 106.518 65.2745 106.321 64.9123C106.125 64.5501 106.002 64.1523 105.961 63.7423C105.92 63.3323 105.962 62.9182 106.083 62.5243L106.083 62.5226L118.833 17.8993C118.833 17.899 118.833 17.8987 118.833 17.8985C119.071 17.1229 119.604 16.4718 120.318 16.0849C121.031 15.6978 121.868 15.6061 122.648 15.8293C123.428 16.0526 124.09 16.573 124.491 17.2788C124.891 17.9844 124.999 18.8189 124.792 19.6031C124.792 19.6034 124.791 19.6037 124.791 19.604L112.042 64.2274ZM138.867 41.1329L138.961 41.0625L138.867 40.9921L129.515 33.9796C129.19 33.7353 128.915 33.4294 128.708 33.0792C128.501 32.7289 128.364 32.3413 128.307 31.9383C128.249 31.5354 128.271 31.1251 128.373 30.7308C128.474 30.3365 128.651 29.9659 128.895 29.6403C129.14 29.3147 129.446 29.0404 129.796 28.833C130.146 28.6256 130.534 28.4893 130.937 28.4317C131.34 28.3741 131.75 28.3965 132.144 28.4975C132.539 28.5985 132.909 28.7762 133.235 29.0204L145.985 38.5829C146.37 38.8716 146.682 39.246 146.897 39.6764C147.112 40.1068 147.224 40.5813 147.224 41.0625C147.224 41.5437 147.112 42.0182 146.897 42.4486C146.682 42.879 146.37 43.2534 145.985 43.5421L133.235 53.1046C132.577 53.5978 131.75 53.8096 130.937 53.6933C130.123 53.5771 129.389 53.1423 128.895 52.4847C128.402 51.8271 128.19 51.0004 128.307 50.1867C128.423 49.3729 128.858 48.6387 129.515 48.1454L138.867 41.1329ZM150.5 5.91196H80.375C78.6609 5.91196 77.017 6.59288 75.8049 7.80494C74.5929 9.01699 73.912 10.6609 73.912 12.375V69.75C73.912 71.4641 74.5929 73.108 75.8049 74.3201C77.017 75.5321 78.6609 76.213 80.375 76.213H150.5C152.214 76.213 153.858 75.5321 155.07 74.3201C156.282 73.108 156.963 71.4641 156.963 69.75V12.375C156.963 10.6609 156.282 9.01699 155.07 7.80494C153.858 6.59288 152.214 5.91196 150.5 5.91196Z" stroke="url(#paint1_linear_525_5496)" stroke-width="0.176086"/>
</g>
<g filter="url(#filter1_f_525_5496)">
<path d="M78.3678 53H47.6322C42.3125 53 38 57.3987 38 62.8248V94.1752C38 99.6013 42.3125 104 47.6322 104H78.3678C83.6875 104 88 99.6013 88 94.1752V62.8248C88 57.3987 83.6875 53 78.3678 53Z" fill="#EF4444"/>
</g>
<g filter="url(#filter2_b_525_5496)">
<path d="M99.8365 50.6633H43.0385C41.669 50.6633 40.3557 51.2073 39.3873 52.1757C38.419 53.144 37.875 54.4574 37.875 55.8268V102.298C37.875 103.667 38.419 104.981 39.3873 105.949C40.3557 106.917 41.669 107.461 43.0385 107.461H99.8365C101.206 107.461 102.519 106.917 103.488 105.949C104.456 104.981 105 103.667 105 102.298V55.8268C105 54.4574 104.456 53.144 103.488 52.1757C102.519 51.2073 101.206 50.6633 99.8365 50.6633ZM60.0779 84.7422C60.6257 85.153 60.9878 85.7646 61.0846 86.4424C61.1815 87.1203 61.0051 87.8088 60.5942 88.3566C60.1834 88.9044 59.5718 89.2665 58.894 89.3633C58.2161 89.4602 57.5276 89.2838 56.9798 88.8729L46.6529 81.1278C46.3322 80.8873 46.072 80.5754 45.8928 80.217C45.7135 79.8585 45.6202 79.4632 45.6202 79.0624C45.6202 78.6616 45.7135 78.2663 45.8928 77.9078C46.072 77.5493 46.3322 77.2375 46.6529 76.997L56.9798 69.2518C57.5276 68.841 58.2161 68.6646 58.894 68.7614C59.5718 68.8582 60.1834 69.2204 60.5942 69.7681C61.0051 70.3159 61.1815 71.0045 61.0846 71.6823C60.9878 72.3601 60.6257 72.9717 60.0779 73.3826L52.5037 79.0624L60.0779 84.7422ZM79.0827 61.7002L68.7557 97.8445C68.6677 98.1762 68.5144 98.4871 68.3048 98.7589C68.0953 99.0307 67.8336 99.258 67.5351 99.4275C67.2366 99.597 66.9073 99.7052 66.5665 99.746C66.2257 99.7867 65.8802 99.759 65.5502 99.6646C65.2202 99.5702 64.9124 99.4109 64.6446 99.1961C64.3769 98.9813 64.1547 98.7153 63.991 98.4136C63.8274 98.1119 63.7255 97.7806 63.6914 97.4391C63.6573 97.0975 63.6916 96.7526 63.7923 96.4245L74.1193 60.2803C74.3178 59.634 74.7618 59.0914 75.3561 58.7689C75.9503 58.4465 76.6473 58.3701 77.2973 58.5561C77.9473 58.742 78.4985 59.1755 78.8323 59.7634C79.1661 60.3514 79.256 61.0468 79.0827 61.7002ZM96.2221 81.1278L85.8952 88.8729C85.3474 89.2838 84.6589 89.4602 83.981 89.3633C83.3032 89.2665 82.6916 88.9044 82.2808 88.3566C81.8699 87.8088 81.6935 87.1203 81.7904 86.4424C81.8872 85.7646 82.2493 85.153 82.7971 84.7422L90.3713 79.0624L82.7971 73.3826C82.5259 73.1791 82.2974 72.9243 82.1246 72.6326C81.9519 72.3408 81.8383 72.0179 81.7904 71.6823C81.7424 71.3467 81.7611 71.0049 81.8452 70.6764C81.9293 70.348 82.0774 70.0394 82.2808 69.7681C82.4842 69.4969 82.739 69.2684 83.0308 69.0957C83.3225 68.9229 83.6454 68.8093 83.981 68.7614C84.3167 68.7134 84.6585 68.7321 84.9869 68.8162C85.3153 68.9004 85.624 69.0484 85.8952 69.2518L96.2221 76.997C96.5428 77.2375 96.803 77.5493 96.9822 77.9078C97.1615 78.2663 97.2548 78.6616 97.2548 79.0624C97.2548 79.4632 97.1615 79.8585 96.9822 80.217C96.803 80.5754 96.5428 80.8873 96.2221 81.1278Z" fill="#EF4444"/>
<path d="M52.4609 79.0053L52.3849 79.0624L52.4609 79.1194L60.0351 84.7992C60.5677 85.1987 60.9199 85.7934 61.014 86.4525C61.1082 87.1116 60.9367 87.7812 60.5372 88.3138C60.1377 88.8465 59.543 89.1986 58.8839 89.2928C58.2248 89.3869 57.5552 89.2154 57.0226 88.8159L46.6957 81.0707C46.3839 80.8369 46.1308 80.5336 45.9565 80.1851C45.7822 79.8365 45.6915 79.4521 45.6915 79.0624C45.6915 78.6726 45.7822 78.2883 45.9565 77.9397C46.1308 77.5911 46.3839 77.2879 46.6957 77.054L57.0226 69.3088C57.5552 68.9094 58.2248 68.7378 58.8839 68.832C59.543 68.9261 60.1377 69.2783 60.5372 69.8109C60.9367 70.3436 61.1082 71.0131 61.014 71.6722C60.9199 72.3313 60.5677 72.926 60.0351 73.3255L52.4609 79.0053ZM68.6872 97.8249L68.6868 97.8262C68.6012 98.1488 68.4522 98.4511 68.2484 98.7154C68.0446 98.9797 67.7901 99.2007 67.4999 99.3655C67.2097 99.5303 66.8895 99.6356 66.5581 99.6752C66.2267 99.7147 65.8907 99.6878 65.5698 99.596C65.2489 99.5042 64.9496 99.3494 64.6893 99.1405C64.4289 98.9316 64.2129 98.673 64.0537 98.3796C63.8946 98.0862 63.7955 97.7641 63.7623 97.432C63.7292 97.0999 63.7625 96.7645 63.8605 96.4454L63.8609 96.4441L74.1874 60.3012C74.1875 60.301 74.1876 60.3008 74.1876 60.3006C74.3807 59.6725 74.8124 59.145 75.3901 58.8316C75.9679 58.5181 76.6457 58.4438 77.2777 58.6246C77.9098 58.8054 78.4457 59.227 78.7703 59.7987C79.0948 60.3702 79.1823 61.0462 79.0139 61.6814C79.0138 61.6816 79.0138 61.6818 79.0137 61.6819L68.6872 97.8249ZM90.4141 79.1194L90.4901 79.0624L90.4141 79.0053L82.8399 73.3255C82.5762 73.1277 82.354 72.8799 82.186 72.5962C82.018 72.3125 81.9076 71.9986 81.861 71.6722C81.8143 71.3458 81.8325 71.0135 81.9143 70.6941C81.9961 70.3748 82.14 70.0747 82.3378 69.8109C82.5356 69.5472 82.7834 69.325 83.0671 69.157C83.3508 68.9891 83.6648 68.8786 83.9911 68.832C84.3175 68.7854 84.6498 68.8035 84.9692 68.8853C85.2886 68.9671 85.5887 69.111 85.8524 69.3088L96.1793 77.054C96.4911 77.2879 96.7442 77.5911 96.9185 77.9397C97.0928 78.2883 97.1835 78.6726 97.1835 79.0624C97.1835 79.4521 97.0928 79.8365 96.9185 80.1851C96.7442 80.5337 96.4911 80.8369 96.1793 81.0707L85.8524 88.8159C85.3198 89.2154 84.6502 89.3869 83.9911 89.2928C83.332 89.1986 82.7373 88.8465 82.3378 88.3138C81.9383 87.7812 81.7668 87.1116 81.861 86.4525C81.9551 85.7934 82.3073 85.1987 82.8399 84.7992L90.4141 79.1194ZM99.8365 50.592H43.0385C41.6501 50.592 40.3186 51.1435 39.3369 52.1252C38.3552 53.107 37.8037 54.4384 37.8037 55.8268V102.298C37.8037 103.686 38.3552 105.018 39.3369 105.999C40.3186 106.981 41.6501 107.533 43.0385 107.533H99.8365C101.225 107.533 102.556 106.981 103.538 105.999C104.52 105.018 105.071 103.686 105.071 102.298V55.8268C105.071 54.4384 104.52 53.107 103.538 52.1252C102.556 51.1435 101.225 50.592 99.8365 50.592Z" stroke="url(#paint2_linear_525_5496)" stroke-width="0.142621"/>
</g>
<defs>
<filter id="filter0_b_525_5496" x="67.4851" y="-0.515107" width="95.9047" height="83.1552" filterUnits="userSpaceOnUse" color-interpolation-filters="sRGB">
<feFlood flood-opacity="0" result="BackgroundImageFix"/>
<feGaussianBlur in="BackgroundImageFix" stdDeviation="3.16954"/>
<feComposite in2="SourceAlpha" operator="in" result="effect1_backgroundBlur_525_5496"/>
<feBlend mode="normal" in="SourceGraphic" in2="effect1_backgroundBlur_525_5496" result="shape"/>
</filter>
<filter id="filter1_f_525_5496" x="-0.00686264" y="14.9931" width="126.014" height="127.014" filterUnits="userSpaceOnUse" color-interpolation-filters="sRGB">
<feFlood flood-opacity="0" result="BackgroundImageFix"/>
<feBlend mode="normal" in="SourceGraphic" in2="BackgroundImageFix" result="shape"/>
<feGaussianBlur stdDeviation="19.0034" result="effect1_foregroundBlur_525_5496"/>
</filter>
<filter id="filter2_b_525_5496" x="32.5981" y="45.3864" width="77.6789" height="67.352" filterUnits="userSpaceOnUse" color-interpolation-filters="sRGB">
<feFlood flood-opacity="0" result="BackgroundImageFix"/>
<feGaussianBlur in="BackgroundImageFix" stdDeviation="2.56718"/>
<feComposite in2="SourceAlpha" operator="in" result="effect1_backgroundBlur_525_5496"/>
<feBlend mode="normal" in="SourceGraphic" in2="effect1_backgroundBlur_525_5496" result="shape"/>
</filter>
<linearGradient id="paint0_linear_525_5496" x1="78.6788" y1="72.166" x2="140.028" y2="-0.337384" gradientUnits="userSpaceOnUse">
<stop stop-color="white" stop-opacity="0.2"/>
<stop offset="1" stop-color="white" stop-opacity="0.49"/>
</linearGradient>
<linearGradient id="paint1_linear_525_5496" x1="79.85" y1="11.5152" x2="137.027" y2="83.7659" gradientUnits="userSpaceOnUse">
<stop stop-color="white"/>
<stop offset="1" stop-color="white" stop-opacity="0"/>
</linearGradient>
<linearGradient id="paint2_linear_525_5496" x1="42.6133" y1="55.1304" x2="88.9239" y2="113.65" gradientUnits="userSpaceOnUse">
<stop stop-color="white"/>
<stop offset="1" stop-color="white" stop-opacity="0"/>
</linearGradient>
</defs>
</svg>
