<svg width="257" height="50" viewBox="0 0 257 50" fill="none" xmlns="http://www.w3.org/2000/svg">
<path d="M14.4638 17.9234L14.5749 19.9187L12.7968 22.5214L10.0185 26.7725L9.46289 30.3295L11.4632 35.3613L16.0196 37.3567H22.9097L29.3553 33.5394L32.2447 27.5533L25.5769 21.2201L23.6876 17.6631L14.4638 17.9234Z" fill="#ECEFF1"/>
<path d="M30.2447 22.8679C28.4667 20.8726 27.022 19.658 26.244 17.1421C25.4661 14.6261 26.4663 15.3202 25.7995 13.1513C25.4661 12.0235 24.9105 11.2427 24.3548 10.6354C23.688 10.0281 22.9101 9.68104 22.4656 9.59429C21.4654 9.16051 19.1317 8.46646 16.2423 9.68104C13.2417 10.8956 13.5751 13.4983 14.1308 18.7904C14.1308 19.1374 14.0196 19.5712 13.7974 19.9182C13.3529 20.699 12.5749 21.3931 11.9082 22.0004C11.1302 22.8679 10.3523 23.7355 9.79668 24.6898C8.46311 26.6852 7.24067 29.2011 7.57406 30.1554C8.12971 30.0687 15.131 38.3973 15.131 38.5708C15.5755 38.484 17.4647 38.484 19.1317 38.484C21.4654 38.3973 22.799 38.3105 24.6882 38.6575C24.6882 38.3973 24.5771 38.137 24.5771 37.8767C24.5771 37.3562 24.6882 36.9224 24.7993 36.3151C24.9105 35.8813 25.0216 35.4476 25.1327 34.927C24.0214 35.7078 22.0211 36.5754 20.1318 36.8356C18.4649 37.0959 15.6866 36.6621 14.353 35.3608C14.4642 35.3608 14.6864 35.3608 14.7976 35.274C15.131 35.1873 15.4643 35.1005 15.5755 34.927C15.9089 34.4932 15.6866 34.0595 15.4643 33.7992C15.2421 33.5389 13.5751 32.5846 12.7972 32.0641C12.0193 31.5435 11.5748 31.2833 11.1302 30.9362C11.1302 30.9362 10.4635 30.4157 10.2412 30.2422C10.0189 30.0687 9.90781 29.8952 9.79668 29.8084C9.57441 29.3746 9.46328 28.8541 9.57441 28.1601C9.68555 27.2057 10.1301 26.4249 10.6857 25.5574C10.908 25.2104 11.4636 24.5163 11.4636 24.5163C11.4636 24.5163 9.57442 28.1601 10.5746 29.2879C10.5746 29.2879 10.6857 28.1601 11.1302 27.0322C11.4636 26.2514 12.0193 25.1236 12.6861 24.5163C13.3529 23.909 15.0198 21.6534 15.131 20.2653C15.131 19.658 15.2421 19.0507 15.2421 18.6169C14.7976 18.2699 22.5767 17.4023 23.0212 18.3566C23.1324 18.7037 24.6882 21.8269 25.5773 23.4752C26.0218 24.256 26.5774 24.9501 26.9108 25.8176C27.2442 26.772 27.4665 28.0733 27.4665 29.3746C27.4665 29.6349 27.4665 30.0687 27.3553 30.5025C27.5776 30.5025 31.9117 26.8587 26.7997 23.8223C26.7997 23.8223 29.9114 24.9501 30.0225 27.2057C30.1336 29.0276 29.1334 30.5025 28.9112 30.7627C29.0223 30.7627 31.2449 31.5435 31.3561 31.5435C31.8006 31.5435 32.6896 31.2833 32.6896 31.2833C32.8008 31.023 33.1342 30.329 33.1342 30.0687C33.9121 28.0733 32.0228 24.8633 30.2447 22.8679Z" fill="#373737"/>
<path d="M16.1307 17.1431C16.9286 17.1431 17.5754 16.3663 17.5754 15.408C17.5754 14.4497 16.9286 13.6729 16.1307 13.6729C15.3329 13.6729 14.686 14.4497 14.686 15.408C14.686 16.3663 15.3329 17.1431 16.1307 17.1431Z" fill="#ECEFF1"/>
<path d="M21.1319 17.316C22.1753 17.316 23.0211 16.4226 23.0211 15.3206C23.0211 14.2186 22.1753 13.3252 21.1319 13.3252C20.0885 13.3252 19.2427 14.2186 19.2427 15.3206C19.2427 16.4226 20.0885 17.316 21.1319 17.316Z" fill="#ECEFF1"/>
<path d="M16.9383 15.5248C16.846 14.9544 16.4256 14.5261 15.9993 14.5681C15.5731 14.6102 15.3024 15.1067 15.3948 15.6771C15.4871 16.2475 15.9075 16.6759 16.3338 16.6338C16.76 16.5917 17.0307 16.0952 16.9383 15.5248Z" fill="#212121"/>
<path d="M21.021 16.7947C21.6347 16.7947 22.1323 16.2898 22.1323 15.6669C22.1323 15.044 21.6347 14.5391 21.021 14.5391C20.4072 14.5391 19.9097 15.044 19.9097 15.6669C19.9097 16.2898 20.4072 16.7947 21.021 16.7947Z" fill="#212121"/>
<path d="M35.801 34.7544C35.3564 34.5809 34.5785 34.3207 33.9117 33.5399C33.5783 33.1061 33.6895 31.8915 33.1338 31.371C32.8004 31.0239 32.3559 31.1975 32.2448 31.1975C31.2446 31.371 28.9109 32.5855 27.355 31.1975C27.1328 31.0239 26.7994 30.7637 26.2437 30.7637C25.6881 30.7637 25.4658 30.9372 25.2435 31.2842C25.0213 31.6312 25.0213 31.8915 25.0213 32.7591C25.0213 33.4531 25.0213 34.2339 24.9101 34.8412C24.6879 36.3161 24.3545 37.1836 24.3545 38.0512C24.3545 39.0055 24.6879 39.6128 25.1324 39.873C25.4658 40.1333 26.0215 40.3068 27.2439 40.3068C28.4663 40.3068 29.2442 39.9598 30.0222 39.3525C30.5778 38.9187 31.0223 38.7452 32.5782 37.8777C33.8006 37.2704 35.6898 36.4896 36.0232 36.2293C36.2455 36.0558 36.5789 35.969 36.5789 35.4485C36.5789 35.0147 36.1344 34.8412 35.801 34.7544Z" fill="#595959"/>
<path d="M13.4637 35.0152C12.3524 33.6272 12.2412 33.3669 11.4633 32.4993C10.7965 31.6318 9.35183 29.9834 8.46278 29.9834C7.79599 29.9834 7.4626 30.2437 7.01808 30.5907C6.57356 30.9377 6.12903 31.7185 5.35112 32.1523C4.68433 32.5861 2.79511 32.4993 2.35058 33.0199C1.90606 33.5404 2.79511 34.3212 2.79511 35.6225C2.79511 36.1431 2.23945 36.4901 2.12832 36.8371C2.01719 37.2709 1.90606 37.5312 2.12832 37.8782C2.57285 38.3987 3.1285 38.5722 6.90695 39.1795C8.9073 39.5266 10.7965 40.3941 12.019 40.4809C13.2414 40.5676 15.3529 40.4809 15.3529 38.1385C15.464 36.7504 14.4638 36.4033 13.4637 35.0152Z" fill="#595959"/>
<path d="M15.575 19.3123C14.9082 18.9653 14.3525 18.6183 14.3525 18.0978C14.3525 17.5772 14.7971 17.4037 15.4638 16.9699C15.575 16.8832 16.7974 16.0156 18.0199 16.0156C19.2423 16.0156 20.687 16.6229 21.2427 16.7964C22.2428 16.9699 23.243 17.1435 23.1319 17.7507C23.0207 18.6183 22.9096 18.7918 21.7983 19.2256C21.0204 19.3991 19.5757 20.3534 18.5755 20.3534C18.131 20.3534 17.4642 20.3534 17.0197 20.2667C16.6863 20.1799 16.1306 19.7461 15.575 19.3123Z" fill="#595959"/>
<path d="M15.3532 18.6171C15.5754 18.7906 15.9088 18.9641 16.2422 19.0509C16.4645 19.1377 16.7979 19.2244 16.7979 19.2244C17.2424 19.2244 17.5758 19.2244 17.7981 19.2244C18.3537 19.2244 19.1316 19.0509 19.9095 18.7039C20.6875 18.4436 20.7986 18.2701 21.3542 18.0966C21.9099 17.8363 22.4655 17.5761 22.2433 17.4893C22.021 17.4025 21.7988 17.4893 21.0208 17.8363C20.3541 18.1833 19.7984 18.3569 19.1316 18.6171C18.7982 18.7039 18.3537 18.8774 18.0203 18.8774C17.6869 18.8774 17.3535 18.8774 17.0201 18.8774C16.6867 18.8774 16.4645 18.7906 16.1311 18.7039C15.9088 18.6171 15.7977 18.5304 15.6866 18.5304C15.4643 18.4436 15.0198 18.0966 14.7975 18.0098C14.7975 18.0098 14.5753 18.0098 14.6864 18.0966C15.0198 18.3569 15.1309 18.4436 15.3532 18.6171Z" fill="#0B0B0B"/>
<path d="M18.687 16.7084C18.7981 16.8819 19.0204 16.8819 19.1315 16.9686C19.2427 17.0554 19.3538 17.0554 19.3538 17.0554C19.4649 16.9686 19.3538 16.7951 19.2427 16.7951C19.2427 16.6216 18.687 16.6216 18.687 16.7084Z" fill="#0B0B0B"/>
<path d="M16.9087 16.8823C16.9087 16.9691 17.131 17.0558 17.131 16.9691C17.2421 16.8823 17.3532 16.7956 17.4643 16.7956C17.6866 16.7088 17.5755 16.6221 17.2421 16.6221C17.0198 16.7088 17.0198 16.7956 16.9087 16.8823Z" fill="#0B0B0B"/>
<path d="M27.6887 32.2378C27.6887 32.3246 27.6887 32.4113 27.6887 32.4981C27.9109 32.8451 28.4666 32.9318 28.9111 32.9318C29.5779 32.9318 30.2447 32.5848 30.5781 32.2378C30.5781 32.151 30.6892 32.0643 30.8003 31.9775C31.0226 31.7173 31.1337 31.5438 31.2449 31.457C31.2449 31.457 31.1337 31.3702 31.1337 31.2835C31.0226 31.11 30.6892 30.9365 30.2447 30.8497C29.9113 30.763 29.3556 30.6762 29.1334 30.6762C28.1332 30.5894 27.5775 30.8497 27.2441 31.11C27.2441 31.11 27.3553 31.11 27.3553 31.1967C27.5775 31.3702 27.6887 31.5438 27.6887 31.804C27.7998 31.9775 27.6887 32.0643 27.6887 32.2378Z" fill="#455A64"/>
<path d="M53.188 19.26H58.498C60.562 19.26 62.014 19.71 62.854 20.61C63.706 21.498 64.132 23.004 64.132 25.128V25.632C64.132 27.756 63.706 29.268 62.854 30.168C62.014 31.056 60.562 31.5 58.498 31.5H53.188V19.26ZM55.186 21.042V29.718H58.3C59.788 29.718 60.79 29.418 61.306 28.818C61.834 28.206 62.098 27.06 62.098 25.38C62.098 23.7 61.834 22.56 61.306 21.96C60.79 21.348 59.788 21.042 58.3 21.042H55.186ZM69.9767 22.806H70.3007C71.7767 22.806 72.8567 23.148 73.5407 23.832C74.2247 24.504 74.5667 25.572 74.5667 27.036V27.378C74.5667 28.842 74.2247 29.916 73.5407 30.6C72.8567 31.272 71.7767 31.608 70.3007 31.608H69.9767C68.5007 31.608 67.4207 31.272 66.7367 30.6C66.0527 29.916 65.7107 28.842 65.7107 27.378V27.036C65.7107 25.572 66.0527 24.504 66.7367 23.832C67.4207 23.148 68.5007 22.806 69.9767 22.806ZM72.1367 25.074C71.7767 24.69 71.1107 24.498 70.1387 24.498C69.1667 24.498 68.5007 24.69 68.1407 25.074C67.7807 25.446 67.6007 26.154 67.6007 27.198C67.6007 28.242 67.7807 28.956 68.1407 29.34C68.5007 29.724 69.1667 29.916 70.1387 29.916C71.1107 29.916 71.7767 29.724 72.1367 29.34C72.4967 28.956 72.6767 28.242 72.6767 27.198C72.6767 26.154 72.4967 25.446 72.1367 25.074ZM88.1606 22.914H90.0686L87.6386 31.5H84.7766L82.8686 24.66H82.6706L80.7806 31.5H77.9006L75.4886 22.914H77.4866L79.3226 29.736H79.4846L81.3746 22.914H84.2726L86.1626 29.736H86.3246L88.1606 22.914ZM95.2724 22.806H95.6144C97.0424 22.806 98.0684 23.088 98.6924 23.652C99.3284 24.204 99.6464 25.104 99.6464 26.352V31.5H97.7744V26.748C97.7744 25.908 97.6064 25.326 97.2704 25.002C96.9344 24.666 96.3284 24.498 95.4524 24.498C94.5764 24.498 93.9644 24.66 93.6164 24.984C93.2804 25.308 93.1124 25.896 93.1124 26.748V31.5H91.2404V26.352C91.2404 25.104 91.5524 24.204 92.1764 23.652C92.8124 23.088 93.8444 22.806 95.2724 22.806ZM101.7 19.26H103.572V31.5H101.7V19.26ZM109.633 22.806H109.957C111.433 22.806 112.513 23.148 113.197 23.832C113.881 24.504 114.223 25.572 114.223 27.036V27.378C114.223 28.842 113.881 29.916 113.197 30.6C112.513 31.272 111.433 31.608 109.957 31.608H109.633C108.157 31.608 107.077 31.272 106.393 30.6C105.709 29.916 105.367 28.842 105.367 27.378V27.036C105.367 25.572 105.709 24.504 106.393 23.832C107.077 23.148 108.157 22.806 109.633 22.806ZM111.793 25.074C111.433 24.69 110.767 24.498 109.795 24.498C108.823 24.498 108.157 24.69 107.797 25.074C107.437 25.446 107.257 26.154 107.257 27.198C107.257 28.242 107.437 28.956 107.797 29.34C108.157 29.724 108.823 29.916 109.795 29.916C110.767 29.916 111.433 29.724 111.793 29.34C112.153 28.956 112.333 28.242 112.333 27.198C112.333 26.154 112.153 25.446 111.793 25.074ZM120.257 22.824C121.745 22.824 122.831 23.148 123.515 23.796C124.199 24.432 124.541 25.458 124.541 26.874V31.5H122.777V30.582C122.201 31.266 121.259 31.608 119.951 31.608H119.771C118.355 31.608 117.323 31.272 116.675 30.6C116.027 29.916 115.703 28.842 115.703 27.378V27.036C115.703 25.572 116.039 24.504 116.711 23.832C117.395 23.16 118.475 22.824 119.951 22.824H120.257ZM120.023 29.916C121.007 29.916 121.691 29.712 122.075 29.304C122.459 28.884 122.651 28.128 122.651 27.036C122.651 26.052 122.471 25.386 122.111 25.038C121.751 24.678 121.079 24.498 120.095 24.498C119.123 24.498 118.463 24.69 118.115 25.074C117.767 25.446 117.593 26.154 117.593 27.198C117.593 28.254 117.761 28.974 118.097 29.358C118.445 29.73 119.087 29.916 120.023 29.916ZM133.251 19.26H135.123V27.378C135.123 28.854 134.775 29.928 134.079 30.6C133.395 31.272 132.315 31.608 130.839 31.608H130.515C129.051 31.608 127.977 31.272 127.293 30.6C126.621 29.916 126.285 28.842 126.285 27.378V27.036C126.285 25.572 126.621 24.504 127.293 23.832C127.965 23.148 129.021 22.806 130.461 22.806H130.659C131.763 22.806 132.627 23.034 133.251 23.49V19.26ZM130.677 29.916C131.661 29.916 132.333 29.73 132.693 29.358C133.053 28.974 133.233 28.26 133.233 27.216C133.233 26.172 133.047 25.458 132.675 25.074C132.315 24.69 131.649 24.498 130.677 24.498C129.705 24.498 129.045 24.69 128.697 25.074C128.349 25.446 128.175 26.154 128.175 27.198C128.175 28.254 128.349 28.974 128.697 29.358C129.045 29.73 129.705 29.916 130.677 29.916ZM144.99 20.88C144.39 20.88 143.994 20.982 143.802 21.186C143.622 21.378 143.532 21.792 143.532 22.428V22.914H146.412V24.534H143.532V31.5H141.66V24.534H139.824V22.914H141.66V22.122C141.66 21.03 141.87 20.28 142.29 19.872C142.722 19.464 143.502 19.26 144.63 19.26H146.484V20.88H144.99ZM151.486 22.806H151.81C153.286 22.806 154.366 23.148 155.05 23.832C155.734 24.504 156.076 25.572 156.076 27.036V27.378C156.076 28.842 155.734 29.916 155.05 30.6C154.366 31.272 153.286 31.608 151.81 31.608H151.486C150.01 31.608 148.93 31.272 148.246 30.6C147.562 29.916 147.22 28.842 147.22 27.378V27.036C147.22 25.572 147.562 24.504 148.246 23.832C148.93 23.148 150.01 22.806 151.486 22.806ZM153.646 25.074C153.286 24.69 152.62 24.498 151.648 24.498C150.676 24.498 150.01 24.69 149.65 25.074C149.29 25.446 149.11 26.154 149.11 27.198C149.11 28.242 149.29 28.956 149.65 29.34C150.01 29.724 150.676 29.916 151.648 29.916C152.62 29.916 153.286 29.724 153.646 29.34C154.006 28.956 154.186 28.242 154.186 27.198C154.186 26.154 154.006 25.446 153.646 25.074ZM161.552 22.806H161.858C163.118 22.806 163.988 23.058 164.468 23.562C164.96 24.054 165.218 24.87 165.242 26.01H163.406C163.394 25.41 163.274 25.008 163.046 24.804C162.83 24.6 162.392 24.498 161.732 24.498C160.928 24.498 160.388 24.654 160.112 24.966C159.836 25.278 159.698 25.896 159.698 26.82V31.5H157.826V26.46C157.826 25.14 158.108 24.204 158.672 23.652C159.248 23.088 160.208 22.806 161.552 22.806ZM172.274 29.718H178.826V31.5H170.276V19.26H172.274V29.718ZM180.169 19.26H182.041V21.186H180.169V19.26ZM180.169 22.914H182.041V31.5H180.169V22.914ZM188.138 22.806H188.48C189.908 22.806 190.934 23.088 191.558 23.652C192.194 24.204 192.512 25.104 192.512 26.352V31.5H190.64V26.748C190.64 25.908 190.472 25.326 190.136 25.002C189.8 24.666 189.194 24.498 188.318 24.498C187.442 24.498 186.83 24.66 186.482 24.984C186.146 25.308 185.978 25.896 185.978 26.748V31.5H184.106V26.352C184.106 25.104 184.418 24.204 185.042 23.652C185.678 23.088 186.71 22.806 188.138 22.806ZM194.529 22.914H196.401V27.684C196.401 28.524 196.563 29.112 196.887 29.448C197.223 29.772 197.823 29.934 198.687 29.934C199.515 29.934 200.097 29.766 200.433 29.43C200.781 29.094 200.955 28.512 200.955 27.684V22.914H202.827V28.08C202.827 29.316 202.509 30.216 201.873 30.78C201.249 31.344 200.241 31.626 198.849 31.626H198.507C197.103 31.626 196.089 31.35 195.465 30.798C194.841 30.234 194.529 29.328 194.529 28.08V22.914ZM213.2 31.5H210.914L208.556 28.422L206.198 31.5H203.912L207.422 27.198L204.038 22.914H206.306L208.574 25.866L210.806 22.914H213.074L209.708 27.054L213.2 31.5Z" fill="white"/>
</svg>
