<svg width="112" height="32" viewBox="0 0 112 32" fill="none" xmlns="http://www.w3.org/2000/svg">
<path d="M63.7513 31.9206C62.8946 31.7531 62.2614 30.9862 62.2614 30.1189C62.2614 29.5084 62.6078 28.8793 63.1144 28.5554C63.4012 28.3767 63.6582 28.3097 64.2169 28.2725C65.5168 28.1832 66.407 27.8444 67.3493 27.0813C68.1017 26.4708 68.7014 25.5513 68.9844 24.576C69.0366 24.3936 69.0701 24.2373 69.0627 24.2298C69.0552 24.2224 68.9062 24.308 68.7312 24.4234C67.7441 25.0674 66.3027 25.5625 64.9842 25.7114C64.4068 25.7747 63.174 25.7375 62.6339 25.637C61.3675 25.3987 60.3358 24.993 59.3376 24.3378C57.9818 23.4518 56.9501 22.2904 56.2461 20.861C55.9295 20.2132 55.7545 19.7442 55.598 19.1151C55.3485 18.1026 55.356 18.2589 55.3448 14.0227C55.3336 11.2866 55.341 10.1177 55.3708 9.97626C55.5087 9.31365 56.0636 8.74038 56.7303 8.56542C57.7248 8.30857 58.764 8.96746 58.98 9.99115C59.0098 10.1289 59.021 11.268 59.021 13.7695C59.021 17.6484 59.0247 17.708 59.2296 18.4301C59.278 18.6163 59.4233 18.9699 59.5425 19.2193C60.2278 20.6264 61.5091 21.6278 63.0324 21.9554C63.3714 22.0261 63.5427 22.041 64.1238 22.041C64.5558 22.041 64.8948 22.0224 65.0363 21.9926C65.5019 21.8884 66.0084 21.7134 66.3921 21.5161C67.9304 20.7344 68.9733 19.2081 69.152 17.4809C69.1744 17.2464 69.1893 15.7574 69.1893 13.5722C69.1893 10.1438 69.193 10.0358 69.2638 9.80131C69.6735 8.47608 71.4055 8.07033 72.3441 9.08286C72.5936 9.35088 72.7836 9.7343 72.8394 10.0731C72.8916 10.4044 72.8916 23.1726 72.8394 23.8315C72.6793 25.8343 71.9232 27.5764 70.5637 29.0952C69.4686 30.3125 67.8782 31.2654 66.2505 31.6824C65.379 31.9057 64.2318 32.0137 63.7513 31.9206Z" fill="#52E1F2"/>
<path d="M49.6726 25.6853C48.5106 25.5252 47.3783 25.1418 46.4061 24.5685C44.3501 23.3624 42.8901 21.4304 42.2978 19.1373C42.0446 18.1472 42.0595 18.6944 42.0483 10.9031L42.0371 3.85635L42.1302 3.57343C42.242 3.23841 42.3649 3.04856 42.6405 2.7917C43.0353 2.41573 43.6238 2.23704 44.1639 2.32638C44.9088 2.44923 45.5122 3.02994 45.6724 3.77817C45.7133 3.97174 45.7245 4.48545 45.7245 6.26855V8.50951H48.328C49.8998 8.50951 51.0098 8.5244 51.129 8.54674C51.3934 8.59513 51.8143 8.80359 52.0266 8.99344C52.4624 9.37314 52.7045 10.0469 52.6151 10.6239C52.4997 11.3684 51.9 12.0013 51.1699 12.1539C51.0359 12.1799 50.1196 12.1948 48.3467 12.1948H45.7208L45.7357 14.9607C45.7506 17.9722 45.7394 17.8345 45.9741 18.5752C46.4024 19.9265 47.49 21.1103 48.8197 21.6724C49.3523 21.8957 49.9036 22.0186 50.5628 22.0595C51.3785 22.1042 51.7063 22.2308 52.1123 22.644C52.7045 23.2433 52.8013 24.1888 52.3507 24.8961C52.116 25.2609 51.7137 25.555 51.278 25.6853C51.021 25.7597 50.2313 25.7597 49.6726 25.6853Z" fill="#52E1F2"/>
<path d="M76.8631 25.6737C76.3417 25.5062 75.9506 25.1637 75.7159 24.6761L75.5781 24.3857V17.1268V9.86784L75.7159 9.57748C76.0884 8.79575 76.9264 8.37511 77.7645 8.55007C78.1668 8.63568 78.6696 8.96327 78.8819 9.2834L78.9415 9.36902L79.232 9.22012C80.7926 8.43839 82.6699 8.29693 84.3124 8.84415C85.1468 9.12334 86.0258 9.63704 86.7148 10.2513L87.091 10.5826L87.4262 10.2624C88.201 9.51792 89.3854 8.90371 90.4991 8.66174C91.3781 8.47561 92.3614 8.46445 93.2143 8.63941C95.9371 9.19779 97.9595 11.2601 98.5145 14.0371C98.5927 14.4428 98.5927 14.4801 98.6076 19.2561C98.6151 23.5035 98.6114 24.0954 98.5592 24.315C98.4214 24.9143 98.0191 25.3796 97.4232 25.6328C97.1178 25.7593 96.5889 25.7817 96.2462 25.6774C95.6093 25.4839 95.099 24.9329 94.9687 24.3001C94.9389 24.1624 94.9277 22.7218 94.9277 19.5539C94.9277 16.628 94.9128 14.9193 94.8904 14.763C94.6334 13.1399 93.1547 12.0195 91.5457 12.2279C90.5214 12.3619 89.6908 12.9464 89.2476 13.851C88.9273 14.5024 88.9533 14.0296 88.931 19.4534L88.9124 24.274L88.8267 24.4937C88.5362 25.2605 87.8546 25.7444 87.0649 25.7444C86.3014 25.7444 85.6496 25.2903 85.3442 24.5458L85.2622 24.3485L85.2436 19.5464C85.225 14.7779 85.2212 14.7406 85.143 14.4614C84.86 13.4601 84.1374 12.6821 83.1988 12.3619C82.4389 12.1051 81.6307 12.1572 80.9044 12.5146C80.2935 12.8124 79.8652 13.2367 79.5598 13.851C79.2246 14.5285 79.2469 14.1674 79.2469 19.2821C79.2469 21.9512 79.232 23.9167 79.2097 24.1028C79.124 24.8585 78.6063 25.4653 77.8725 25.6849C77.6043 25.7631 77.1276 25.7593 76.8631 25.6737Z" fill="#52E1F2"/>
<path d="M109.044 25.7036C108.891 25.6849 108.556 25.6291 108.299 25.577C106.522 25.2085 105.021 24.3783 103.733 23.0568C102.436 21.7242 101.643 20.0863 101.341 18.1133C101.289 17.7671 101.282 16.9295 101.271 10.9847C101.259 6.52879 101.267 4.14264 101.293 3.9379C101.394 3.10778 102.019 2.46006 102.854 2.32233C103.748 2.17342 104.701 2.8137 104.906 3.70711C104.932 3.81134 104.947 4.72708 104.947 6.19004V8.50545L107.696 8.51662L110.441 8.52779L110.653 8.61341C111.368 8.90376 111.815 9.50309 111.864 10.2402C111.875 10.4077 111.864 10.631 111.841 10.7427C111.737 11.2303 111.361 11.7254 110.921 11.96C110.474 12.1982 110.53 12.1945 107.599 12.1945H104.939L104.958 14.8635C104.973 17.823 104.973 17.8304 105.226 18.5823C105.737 20.1235 106.928 21.311 108.463 21.8172C108.914 21.9661 109.435 22.0592 109.822 22.0592C110.471 22.0592 110.895 22.2118 111.294 22.5804C111.677 22.9377 111.875 23.3881 111.875 23.9018C111.875 24.423 111.703 24.8399 111.335 25.2047C110.91 25.6254 110.564 25.7482 109.808 25.7408C109.543 25.7371 109.197 25.7222 109.044 25.7036Z" fill="#52E1F2"/>
<path d="M4.88125 14.3771L0.126604 18.1292C-0.0456372 18.2651 -0.041458 18.5277 0.135023 18.658L17.2533 31.3034L17.489 31.064L4.88125 14.3771Z" fill="url(#paint0_linear_736_97)"/>
<path fill-rule="evenodd" clip-rule="evenodd" d="M2.76495 0L3.35716 0.340301C3.35798 0.340766 3.35881 0.341235 3.35963 0.341707L12.7115 5.71554L17.9145 30.6503C17.882 30.6712 17.8513 30.696 17.8231 30.7247L17.489 31.064L4.88125 14.3771L2.76495 0ZM17.9851 31.8441L18.1962 32L18.1955 31.9967L17.9851 31.8441ZM13.518 22.3704C13.7701 22.2225 14.0942 22.307 14.2421 22.5591L15.4284 24.5818C15.5763 24.8339 15.4918 25.1581 15.2398 25.306C14.9878 25.4539 14.6636 25.3695 14.5157 25.1174L13.3294 23.0947C13.1816 22.8426 13.266 22.5183 13.518 22.3704Z" fill="url(#paint1_linear_736_97)"/>
<path fill-rule="evenodd" clip-rule="evenodd" d="M17.9145 30.6503L12.7115 5.71554H23.6809L18.4787 30.646C18.3063 30.539 18.0857 30.5404 17.9145 30.6503ZM18.1955 31.9967L18.1962 32L18.1967 31.9976L18.1955 31.9967Z" fill="url(#paint2_linear_736_97)"/>
<path fill-rule="evenodd" clip-rule="evenodd" d="M18.4787 30.646L23.6809 5.71554L33.0327 0.341707L33.6274 0L33.528 0.675588C33.5278 0.676615 33.5277 0.677644 33.5275 0.678673L31.5111 14.3771L18.9067 31.0596L18.577 30.7247C18.5468 30.694 18.5137 30.6678 18.4787 30.646ZM18.1975 31.9982L18.1981 31.9986L18.1962 32L18.1967 31.9976L18.1975 31.9982ZM21.9933 22.5591C22.1411 22.307 22.4653 22.2225 22.7173 22.3704C22.9694 22.5183 23.0538 22.8426 22.906 23.0947L21.7196 25.1174C21.5718 25.3695 21.2476 25.4539 20.9956 25.306C20.7436 25.1581 20.6591 24.8339 20.807 24.5818L21.9933 22.5591Z" fill="url(#paint3_linear_736_97)"/>
<path d="M36.2658 18.1292L31.5111 14.3771L18.9067 31.0596L19.1436 31.3002L36.2574 18.658C36.4338 18.5277 36.438 18.2651 36.2658 18.1292Z" fill="url(#paint4_linear_736_97)"/>
<defs>
<linearGradient id="paint0_linear_736_97" x1="18.1962" y1="5.30928" x2="13.3466" y2="30.5704" gradientUnits="userSpaceOnUse">
<stop stop-color="#942121"/>
<stop offset="1" stop-color="#892727"/>
</linearGradient>
<linearGradient id="paint1_linear_736_97" x1="18.1962" y1="5.30928" x2="13.3466" y2="30.5704" gradientUnits="userSpaceOnUse">
<stop stop-color="#D03232"/>
<stop offset="1" stop-color="#892727"/>
</linearGradient>
<linearGradient id="paint2_linear_736_97" x1="12.7607" y1="4.51464" x2="29.8042" y2="57.1119" gradientUnits="userSpaceOnUse">
<stop stop-color="#EF4444"/>
<stop offset="1" stop-color="#892727"/>
</linearGradient>
<linearGradient id="paint3_linear_736_97" x1="18.1962" y1="5.30928" x2="13.3466" y2="30.5704" gradientUnits="userSpaceOnUse">
<stop stop-color="#D03232"/>
<stop offset="1" stop-color="#892727"/>
</linearGradient>
<linearGradient id="paint4_linear_736_97" x1="18.1962" y1="5.30928" x2="13.3466" y2="30.5704" gradientUnits="userSpaceOnUse">
<stop stop-color="#942121"/>
<stop offset="1" stop-color="#892727"/>
</linearGradient>
</defs>
</svg>
